<?xml version="1.0" standalone="no"?>
<!DOCTYPE svg PUBLIC "-//W3C//DTD SVG 20010904//EN"
 "http://www.w3.org/TR/2001/REC-SVG-20010904/DTD/svg10.dtd">
<svg version="1.0" xmlns="http://www.w3.org/2000/svg"
 width="512.000000pt" height="512.000000pt" viewBox="0 0 512.000000 512.000000"
 preserveAspectRatio="xMidYMid meet">
<metadata>
Created by potrace 1.14, written by Peter Selinger 2001-2017
</metadata>
<g transform="translate(0.000000,512.000000) scale(0.100000,-0.100000)"
fill="#000000" stroke="none">
<path d="M400 5101 c-19 -10 -44 -34 -55 -53 -19 -31 -20 -53 -22 -457 -1
-233 -5 -426 -8 -429 -3 -3 -53 -6 -110 -7 -114 -1 -135 -9 -179 -69 -20 -27
-21 -39 -21 -369 1 -387 6 -426 86 -595 118 -254 358 -454 619 -518 41 -10 79
-22 84 -26 6 -5 10 -342 11 -870 1 -640 4 -880 14 -928 46 -242 189 -463 392
-607 67 -48 157 -93 249 -125 134 -47 119 -47 1615 -47 1383 -1 1412 0 1495
19 538 129 732 797 346 1186 -118 118 -228 178 -390 211 -17 3 -314 7 -661 8
-459 1 -646 5 -688 14 -313 68 -541 339 -552 658 -2 71 1 106 19 198 13 63 76
195 119 247 l23 28 544 0 c300 0 572 5 605 10 119 17 141 22 235 52 215 69
384 172 551 338 161 159 269 335 338 553 56 176 59 223 60 878 1 658 3 645
-61 691 l-33 23 -635 0 c-577 0 -643 -2 -720 -18 -570 -122 -982 -548 -1086
-1122 -4 -22 -9 -300 -11 -618 l-4 -578 -51 -67 c-89 -120 -165 -303 -185
-447 -17 -123 -6 -298 25 -405 97 -333 328 -575 655 -686 37 -12 67 -21 67
-19 0 3 11 0 24 -5 52 -20 152 -23 746 -25 462 -1 626 -5 660 -14 161 -46 272
-167 302 -330 39 -209 -108 -426 -320 -471 -31 -7 -531 -9 -1452 -7 -1284 2
-1410 4 -1460 19 -64 20 -167 70 -197 95 -12 10 -37 30 -57 45 -80 63 -169
208 -202 328 -16 60 -18 135 -19 927 l-1 862 70 17 c274 67 506 250 632 497
35 68 81 212 91 282 4 33 8 200 8 372 0 299 -1 313 -21 339 -11 15 -33 37 -48
48 -27 21 -35 21 -231 26 -20 0 -20 6 -20 418 1 253 -3 427 -9 442 -36 92
-156 127 -230 69 -60 -47 -60 -44 -61 -507 l0 -424 -330 -1 -330 -2 -5 435
c-5 399 -6 437 -23 462 -42 61 -133 84 -197 49z"/>
</g>
</svg>
